<svg xmlns="http://www.w3.org/2000/svg" xmlns:xlink="http://www.w3.org/1999/xlink" fill="#55534e" height="800px" width="800px" version="1.1" id="Layer_1" viewBox="0 0 512 512" xml:space="preserve">
<g>
	<g>
		<polygon points="293.102,0 82.468,226.493 169.555,226.493 169.555,262.419 228.956,253.204 235.039,252.26 241.011,253.756     381.086,288.832 404.121,294.601 404.121,318.348 404.121,349.061 423.11,343.843 423.11,226.493 511.022,226.493   " fill="#55534e"/>
	</g>
</g>
<g>
	<g>
		<polygon points="0.186,305.605 0.186,512 75.218,512 75.218,503.408 75.218,481.573 75.218,472.79 75.218,469.378 75.218,438.76     75.218,336.032 75.218,333.914 75.218,307.843 75.218,305.605   " fill="#55534e"/>
	</g>
</g>
<g>
	<g>
		<polygon points="500.526,354.121 373.923,388.916 266.062,362.61 273.271,333.049 373.467,357.486 373.694,357.423     373.694,318.348 233.62,283.271 105.645,303.124 105.645,305.605 105.645,333.914 105.645,438.76 105.645,469.378     179.602,461.083 322.899,501.308 511.814,397.187   " fill="#55534e"/>
	</g>
</g>
</svg>